<svg class="animated" id="freepik_stories-fish-bowl" xmlns="http://www.w3.org/2000/svg" viewBox="0 0 500 500" version="1.1" xmlns:xlink="http://www.w3.org/1999/xlink" xmlns:svgjs="http://svgjs.com/svgjs"><style>svg#freepik_stories-fish-bowl:not(.animated) .animable {opacity: 0;}svg#freepik_stories-fish-bowl.animated #freepik--Water--inject-3 {animation: 6s Infinite  linear wind;animation-delay: 0s;}svg#freepik_stories-fish-bowl.animated #freepik--Fishes--inject-3 {animation: 3s Infinite  linear wind;animation-delay: 0s;}            @keyframes wind {                0% {                    transform: rotate( 0deg );                }                25% {                    transform: rotate( 1deg );                }                75% {                    transform: rotate( -1deg );                }            }        </style><g id="freepik--background-complete--inject-3" class="animable" style="transform-origin: 250.289px 256.655px;"><path d="M100.34,404.14a2.84,2.84,0,0,0,.51-2.29c-.55-1.48-2.81-1.06-4-.06-3.41,2.82-4.95,8.09-9.23,9.19a15.19,15.19,0,0,0-3,.72c-1.87.94-2.35,3.33-3,5.33s-2.26,4.23-4.3,3.75c-1.14-.27-1.9-1.3-2.82-2s-2.46-1.05-3.11-.07a2.88,2.88,0,0,0,0,2.32c1.49,5.45.26,11.35-2.23,16.42s-6.15,9.46-9.78,13.79c-1.13-10.75,9.43-20,8.78-30.77-.16-2.61-1-5.13-1.23-7.73-.64-6.54,3.25-13.78,9.66-15.21,1.17-.26,2.52-.4,3.22-1.37,1.07-1.48-.44-3.7-2.25-4s-3.56.64-5.15,1.54a8.73,8.73,0,0,1,7.39-6.54c1.74-.19,3.57.16,5.22-.45s2.85-2.86,1.63-4.12c-1.93-2-5.75,1.72-7.89-.06-1.43-1.19-.53-3.47.37-5.09s1.49-4.11-.15-5-3.43,1.21-4.24,3q-6.66,14.41-13.31,28.82c-1.29,2.79-2.61,5.76-2.23,8.81.26,2.11,1.32,4,2.09,6s1.25,4.26.36,6.2-3.64,3.05-5.25,1.67a5.46,5.46,0,0,1-1.42-3c-1.06-4.49-2.11-9.2-.93-13.65,1.14-4.29,4.29-8,4.37-12.49.06-3.4-1.68-7.07,0-10a12.11,12.11,0,0,1,3.6-3.37c1.33-1,2.64-2.24,2.9-3.88s-1.16-3.55-2.77-3.17c-2.25.54-2.47,4.51-4.78,4.64-1.44.08-2.42-1.68-2.11-3.09a7.15,7.15,0,0,1,2.47-3.48l5.75-5.32c1.36-1.26,2.85-3,2.28-4.73s-2.84-2.27-4.5-1.6a9.83,9.83,0,0,0-3.87,3.6,10.15,10.15,0,0,0,.56-4,3.41,3.41,0,0,0-2.34-3c-1.92-.46-3.65,1.51-4,3.46s.1,4-.11,5.93S50,373.93,48,373.94c-1.75,0-3.11-1.77-3.22-3.52a8.77,8.77,0,0,1,1.59-4.94,16.65,16.65,0,0,0,2.28-4.73C49,359,48.52,357,47,356.07s-3.95.12-3.87,1.88c-.35-2.18-1.41-4.95-3.6-4.77s-2.77,2.82-2.79,4.89a40.37,40.37,0,0,0,4.41,18.54c1.79,3.49,4.08,6.71,5.76,10.26s2.75,7.57,1.86,11.39c-.54,2.33-1.77,4.43-2.61,6.67a20.83,20.83,0,0,0,2,18.28c-1.43.13-2.57-1.06-3.69-1.94s-2.93-1.48-3.85-.38a2.27,2.27,0,0,0,.35,2.85,8.83,8.83,0,0,0,2.65,1.65,17.54,17.54,0,0,1,9.07,11.47c-2.63.34-4.78-4-7-2.63-1.48.9-.82,3.32.57,4.36s3.2,1.4,4.51,2.54a5,5,0,0,1,.22,7c-1.87,1.85-4.77,1.07-7-.29a19.5,19.5,0,0,1-8.57-12.2c-1.38-4.1.26-8.6.76-11.89.6-4,3.39-7.54,3.71-11.6s-1.79-8.72.1-12.49c.94-1.87,2.7-3.15,4.2-4.6s2.86-3.38,2.59-5.45-3-3.67-4.56-2.23c-.74.71-1.06,2-2.07,2.19s-1.88-.93-1.88-2a12.45,12.45,0,0,1,.75-3,2.56,2.56,0,0,0-.75-2.83,2.15,2.15,0,0,0-2.81,1.11,6.24,6.24,0,0,0-.33,3.33l.78,9.38c.07.83,0,1.86-.71,2.22s-1.53-.17-2.09-.73a14.17,14.17,0,0,1-4-10.25,20.43,20.43,0,0,1,3.4-10.64,24.74,24.74,0,0,0,2.68-4.57,5.13,5.13,0,0,0-.53-5c-1.14-1.35-3.64-1.49-4.55,0-.78,1.31-.12,3,0,4.48.3,3.41-2.15,6.35-3.6,9.45a17.39,17.39,0,0,0,2.51,18.31c1.39,1.6,3.07,2.94,4.39,4.6a7.43,7.43,0,0,1,1.9,5.86c-.39,2.08-2.57,3.87-4.6,3.24-1.64-.51-2.54-2.28-2.94-3.95s-.54-3.46-1.43-4.92-3-2.44-4.36-1.43a3.53,3.53,0,0,0-1.15,3.12c.26,5.38,5.53,9,7.91,13.82a13.84,13.84,0,0,1,0,12c-.86-1.35-1.82-2.78-3.31-3.37s-3.61.24-3.68,1.84a3.4,3.4,0,0,0,1.06,2.28A13.13,13.13,0,0,0,29,435.81C28.48,440,31,444.07,34,447s6.77,5.17,9.79,8.17,5.19,8,4.46,12.16l19.13-.13a10,10,0,0,1,7.08-8.79c2-.58,4.23-.49,6.18-1.31s3.57-3.12,2.58-5a3.53,3.53,0,0,0-3.32-1.64,10.31,10.31,0,0,0-3.72,1.11,2.51,2.51,0,1,0-3.35-3.7c-.89,1-.88,2.45-1.41,3.65s-2.4,2-3.07.89a2.34,2.34,0,0,1,.09-1.9c1.13-3.25,2.36-6.65,5-8.88,5.38-4.59,14.6-2.56,19.43-7.74a4,4,0,0,0,1.26-3.55c-.57-2.15-3.6-2.51-5.62-1.59s-3.65,2.65-5.78,3.29-5.11-.68-4.79-2.88c.19-1.38,1.59-2.27,3-2.57s2.79-.21,4.13-.58,2.66-1.46,2.63-2.85a1.89,1.89,0,0,0-2.27-1.62A58.92,58.92,0,0,0,100.34,404.14Z" style="fill: rgb(235, 235, 235); transform-origin: 60.8536px 410.251px;" id="elz5scwybdit" class="animable"></path><circle cx="116.79" cy="74.08" r="28.1" style="fill: rgb(235, 235, 235); transform-origin: 116.79px 74.08px;" id="elj7x1sa3th4" class="animable"></circle><g id="el2tyipsbmdzg"><circle cx="75.21" cy="123.62" r="21.09" style="fill: rgb(235, 235, 235); transform-origin: 75.21px 123.62px; transform: rotate(-45deg);" class="animable"></circle></g><circle cx="443.5" cy="131.38" r="19.16" style="fill: rgb(224, 224, 224); transform-origin: 443.5px 131.38px;" id="el5iwnht65h8j" class="animable"></circle><circle cx="60.84" cy="61.41" r="12.67" style="fill: rgb(235, 235, 235); transform-origin: 60.84px 61.41px;" id="elgdl0o0gc9pl" class="animable"></circle><circle cx="415.32" cy="101.13" r="10.74" style="fill: rgb(224, 224, 224); transform-origin: 415.32px 101.13px;" id="el8vxbq8ojed9" class="animable"></circle><g id="elfksnre4ne9"><circle cx="451.64" cy="91" r="8.14" style="fill: rgb(224, 224, 224); transform-origin: 451.64px 91px; transform: rotate(-80.81deg);" class="animable"></circle></g><path d="M427.48,386.21l11.85,80.28,3.08.09C440.44,439.32,438.35,411.51,427.48,386.21Z" style="fill: rgb(224, 224, 224); transform-origin: 434.945px 426.395px;" id="el1c3kkrx2vrg" class="animable"></path><path d="M460.38,378.16c-8.27,9.06-11.6,21.53-13.7,33.63-3,17.15-3.24,37.4-2.35,54.79l4.33.1A237.81,237.81,0,0,1,460.38,378.16Z" style="fill: rgb(224, 224, 224); transform-origin: 452.128px 422.42px;" id="elaeoxqfohsri" class="animable"></path><path d="M429.66,442.35c-1-2.93-2-5.91-4.43-8.41-3.22-3.37-8.47-5.5-13.76-7.16s-10.84-3-15.61-5.28c5.32,6.12,17.41,7.75,23.57,13.47,3.06,2.85,4.34,6.42,5.54,9.89,2.61,7.56,4.22,14.1,6.84,21.65h3.51A141.76,141.76,0,0,0,429.66,442.35Z" style="fill: rgb(224, 224, 224); transform-origin: 415.59px 444.005px;" id="elua7r453tp6o" class="animable"></path><path d="M451.81,466.58s3-33.51,5.17-39.66,23-23.15,22.8-22.35-15.6,19.4-17.8,23.2-6,38.81-6,38.81Z" style="fill: rgb(224, 224, 224); transform-origin: 465.796px 435.561px;" id="elvxquwy0tvi" class="animable"></path></g><g id="freepik--Table--inject-3" class="animable" style="transform-origin: 255.065px 466.65px;"><path d="M483.74,466.65c0,.14-102.39.26-228.66.26s-228.69-.12-228.69-.26,102.37-.26,228.69-.26S483.74,466.5,483.74,466.65Z" style="fill: rgb(38, 50, 56); transform-origin: 255.065px 466.65px;" id="elcyrkrlq32a" class="animable"></path></g><g id="freepik--Water--inject-3" class="animable" style="transform-origin: 254.912px 294.79px;"><path d="M378.27,142a177.19,177.19,0,1,1-248.42,6.54s18.62-4.6,46.09,3.08,42.28,16.46,69.71,8.77,25.79-17,51-18.39,35,5.23,53.17,8S378.27,142,378.27,142Z" style="fill: rgb(224, 224, 224); transform-origin: 257.384px 295.275px;" id="elzoi3uh1ewgq" class="animable"></path><path d="M416.92,185a32.92,32.92,0,0,1-3.71,1.08,49,49,0,0,0-10.12,4.29,80.5,80.5,0,0,0-14,10.27c-2.55,2.25-5.18,4.77-7.92,7.51s-5.59,5.68-8.69,8.71c-6.18,6-13.32,12.51-22.57,17.2a43.5,43.5,0,0,1-15.36,4.56,56.46,56.46,0,0,1-16.86-1.4c-5.63-1.18-11.26-2.75-17-3.79a60.1,60.1,0,0,0-8.78-.92,36.08,36.08,0,0,0-8.82,1,18.21,18.21,0,0,0-2.16.6c-.71.24-1.44.43-2.14.71a43.07,43.07,0,0,0-4.16,1.88c-.68.36-1.37.7-2,1.08l-2,1.22c-.67.39-1.31.84-1.95,1.29l-1.92,1.35c-5.05,3.78-9.78,8.19-14.65,12.62s-9.8,8.81-15.34,12.31a71.19,71.19,0,0,1-8.51,4.66,86,86,0,0,1-8.88,3.44c-12,3.87-24.13,5.12-35.55,5.54s-22.28,0-32.38.09a190.55,190.55,0,0,0-28,1.8,96.54,96.54,0,0,0-22.19,6,71.37,71.37,0,0,0-15.16,8.46c-7.66,5.77-10.62,10.36-10.85,10.14a20.19,20.19,0,0,1,2.24-3.17,55,55,0,0,1,8-7.78,69.31,69.31,0,0,1,15.2-9,95.54,95.54,0,0,1,22.47-6.51,187.28,187.28,0,0,1,28.23-2.14c10.15-.16,21,.14,32.31-.32s23.21-1.79,34.85-5.58a82,82,0,0,0,8.59-3.35,68,68,0,0,0,8.19-4.5c5.31-3.36,10.13-7.66,15-12s9.64-8.88,14.85-12.78l2-1.4c.66-.47,1.33-.93,2-1.34l2.08-1.28c.7-.4,1.43-.75,2.15-1.13,1.41-.8,2.95-1.34,4.42-2,.75-.29,1.54-.5,2.3-.75a17,17,0,0,1,2.32-.64,37.93,37.93,0,0,1,9.45-1,61.39,61.39,0,0,1,9.18,1c5.95,1.1,11.58,2.71,17.09,3.89a54.6,54.6,0,0,0,16.17,1.47,41.64,41.64,0,0,0,14.61-4.21c8.93-4.42,16-10.73,22.25-16.6,3.11-2.95,6-5.87,8.8-8.57s5.5-5.19,8.13-7.42a76.65,76.65,0,0,1,14.51-10.06,43.79,43.79,0,0,1,10.45-3.91c1.24-.32,2.22-.39,2.86-.51A3.1,3.1,0,0,1,416.92,185Z" style="fill: rgb(245, 245, 245); transform-origin: 246.085px 245.852px;" id="elsextxzklct" class="animable"></path><path d="M84.43,316.89c3.6-17.47,21.45-28.93,39.1-31.53s35.48,1.59,53.1,4.43,36.48,4.14,52.53-3.63c21.11-10.22,34.13-34.63,56.87-40.33,19.11-4.8,39.52,5.29,58.73.93,15.45-3.5,27.29-15.66,37.39-27.86s20-25.41,34.08-32.57l10.37,20.22s-28.14,21.51-37.82,33.58-20.26,24-57.27,24.93c0,0-31.86-7.28-44.73-2.46s-39.3,44.71-58.14,48.52-72.36-8.75-92.66-3.62-42.06,32.55-42.06,32.55Z" style="fill: rgb(245, 245, 245); transform-origin: 255.515px 263.19px;" id="elogbobd17qis" class="animable"></path><path d="M380.76,143.18l-.58.34-1.73.95a39.9,39.9,0,0,1-7.11,2.68,50.5,50.5,0,0,1-11.9,1.65,86.86,86.86,0,0,1-15.88-1.18c-5.83-.9-12.13-2.38-18.92-3.74a104.28,104.28,0,0,0-21.89-2.53c-7.79,0-15.81,2.09-23.64,5.25s-15.67,7.22-24,10.55a80.61,80.61,0,0,1-12.74,4,59.11,59.11,0,0,1-12.89,1.37,100.51,100.51,0,0,1-24.21-3.5c-7.56-1.94-14.62-4.22-21.25-6.24A189.91,189.91,0,0,0,165.34,148a93.47,93.47,0,0,0-15.75-1.84,64.42,64.42,0,0,0-11.94.82,53,53,0,0,0-7.34,1.85l-1.87.65-.64.2s.21-.1.62-.25l1.85-.7a49.12,49.12,0,0,1,7.34-1.94,63.17,63.17,0,0,1,12-.92,93.48,93.48,0,0,1,15.81,1.77,188.91,188.91,0,0,1,18.7,4.78c6.64,2,13.69,4.27,21.24,6.19A100.31,100.31,0,0,0,229.44,162a58.72,58.72,0,0,0,12.78-1.36,80.88,80.88,0,0,0,12.65-4c8.35-3.32,16.14-7.41,24.05-10.54s16-5.25,23.82-5.26,15.2,1.22,22,2.59,13.08,2.87,18.89,3.8a87.51,87.51,0,0,0,15.81,1.25A50.58,50.58,0,0,0,371.29,147a40.82,40.82,0,0,0,7.11-2.57l1.75-.91Z" style="fill: rgb(38, 50, 56); transform-origin: 254.28px 151.68px;" id="eltxgspbsqe3" class="animable"></path></g><g id="freepik--Decoration--inject-3" class="animable" style="transform-origin: 260.515px 332.167px;"><path d="M148.63,262.08l19.78,138.66L255,388.38,235.25,249.72Zm71.68,60.51-35.15,5-4-28.2a17.74,17.74,0,0,1,15.06-20.08h0a17.74,17.74,0,0,1,20.08,15.06Z" style="fill: rgb(38, 50, 56); transform-origin: 201.815px 325.23px;" id="ell0s7lhdu9qn" class="animable"></path><polygon points="238 216.41 240.09 231.1 224.01 233.39 221.91 218.71 209.39 220.49 211.48 235.18 195.4 237.47 193.3 222.79 180.77 224.58 182.87 239.26 166.79 241.56 164.69 226.87 152.16 228.66 154.26 243.34 138.18 245.64 136.08 230.96 128.11 232.09 133.99 273.25 249.52 256.76 243.65 215.6 238 216.41" style="fill: rgb(38, 50, 56); transform-origin: 188.815px 244.425px;" id="elx7wff1e7vzb" class="animable"></polygon><path d="M246.85,240.13c0,.14-25.87,4-57.82,8.51s-57.88,8.14-57.9,8S157,252.69,189,248.12,246.83,240,246.85,240.13Z" style="fill: rgb(69, 90, 100); transform-origin: 188.99px 248.385px;" id="el0564ngascflx" class="animable"></path><path d="M248.66,256.88c0,.15-25.62,3.92-57.25,8.44s-57.31,8.06-57.33,7.91,25.61-3.91,57.25-8.43S248.64,256.74,248.66,256.88Z" style="fill: rgb(69, 90, 100); transform-origin: 191.37px 265.055px;" id="el5re0wgon6xp" class="animable"></path><path d="M148.64,254.34a45.89,45.89,0,0,1-1.37-9.61,23,23,0,0,1,.95,4.77A22.56,22.56,0,0,1,148.64,254.34Z" style="fill: rgb(69, 90, 100); transform-origin: 147.958px 249.535px;" id="elueolbgi7y4" class="animable"></path><path d="M168.77,268.28a69,69,0,0,1-1.45-8.3,67.83,67.83,0,0,1-.93-8.37,69,69,0,0,1,1.45,8.3A70.24,70.24,0,0,1,168.77,268.28Z" style="fill: rgb(69, 90, 100); transform-origin: 167.58px 259.945px;" id="elpv9px3lk97h" class="animable"></path><path d="M215.36,261.64a67.1,67.1,0,0,1-1.45-8.31A65.58,65.58,0,0,1,213,245a68.38,68.38,0,0,1,1.44,8.3A69.41,69.41,0,0,1,215.36,261.64Z" style="fill: rgb(69, 90, 100); transform-origin: 214.18px 253.32px;" id="el9behi3mgs8j" class="animable"></path><path d="M225.44,243.38a29,29,0,0,1-1.05-5.52,30.85,30.85,0,0,1-.54-5.6,31,31,0,0,1,1.05,5.52A30.85,30.85,0,0,1,225.44,243.38Z" style="fill: rgb(69, 90, 100); transform-origin: 224.645px 237.82px;" id="elok1ehux4in" class="animable"></path><path d="M184.23,249.51a24.79,24.79,0,0,1-1-5,24.22,24.22,0,0,1-.46-5.08,25,25,0,0,1,1,5A25.51,25.51,0,0,1,184.23,249.51Z" style="fill: rgb(69, 90, 100); transform-origin: 183.499px 244.47px;" id="elc0jstd578" class="animable"></path><path d="M238.61,273.27c0,.15-19.36,3-43.27,6.44S152,285.78,152,285.64s19.35-3,43.27-6.44S238.59,273.13,238.61,273.27Z" style="fill: rgb(69, 90, 100); transform-origin: 195.305px 279.455px;" id="elwck93if70ls" class="animable"></path><path d="M181.24,299.05c0,.14-5.86,1.1-13.13,2.14s-13.19,1.76-13.21,1.62,5.86-1.1,13.13-2.14S181.22,298.91,181.24,299.05Z" style="fill: rgb(69, 90, 100); transform-origin: 168.07px 300.93px;" id="elc8lrmf4zent" class="animable"></path><path d="M240.24,290.85c0,.14-5.16,1-11.57,1.91s-11.62,1.54-11.64,1.4,5.16-1,11.57-1.92S240.22,290.7,240.24,290.85Z" style="fill: rgb(69, 90, 100); transform-origin: 228.635px 292.504px;" id="elhac1udg2iwk" class="animable"></path><path d="M183.78,316.83c0,.14-5.91,1.1-13.24,2.15s-13.3,1.78-13.32,1.64,5.91-1.11,13.25-2.16S183.76,316.68,183.78,316.83Z" style="fill: rgb(69, 90, 100); transform-origin: 170.5px 318.724px;" id="el9hvi7qh3y4b" class="animable"></path><path d="M243.16,307.5c0,.14-5.32,1-11.94,2s-12,1.59-12,1.45,5.32-1,11.94-2S243.14,307.36,243.16,307.5Z" style="fill: rgb(69, 90, 100); transform-origin: 231.19px 309.225px;" id="elxjk5ajlz6t" class="animable"></path><path d="M246.06,324.15c0,.15-19.39,3-43.35,6.45s-43.41,6.08-43.43,5.94,19.39-3,43.36-6.45S246,324,246.06,324.15Z" style="fill: rgb(69, 90, 100); transform-origin: 202.67px 330.345px;" id="elbx6cqg1p6t" class="animable"></path><path d="M248.33,340.05c0,.14-19.39,3-43.35,6.45s-43.41,6.07-43.43,5.93,19.39-3,43.36-6.45S248.31,339.9,248.33,340.05Z" style="fill: rgb(69, 90, 100); transform-origin: 204.94px 346.24px;" id="eltge83d36c6i" class="animable"></path><path d="M250.72,356.78c0,.14-19.39,3-43.35,6.45s-43.41,6.07-43.43,5.93,19.38-3,43.35-6.45S250.7,356.63,250.72,356.78Z" style="fill: rgb(69, 90, 100); transform-origin: 207.33px 362.97px;" id="elwx3hz6s8ibg" class="animable"></path><path d="M253.1,373.5c0,.15-19.39,3-43.35,6.45s-43.41,6.08-43.43,5.94,19.39-3,43.36-6.45S253.08,373.36,253.1,373.5Z" style="fill: rgb(69, 90, 100); transform-origin: 209.71px 379.695px;" id="elytgfru5id6n" class="animable"></path><path d="M196.71,279.36A53.9,53.9,0,0,1,195.4,272a54.71,54.71,0,0,1-.8-7.41,53.55,53.55,0,0,1,1.31,7.34A54.92,54.92,0,0,1,196.71,279.36Z" style="fill: rgb(69, 90, 100); transform-origin: 195.655px 271.975px;" id="eldzeojlz0a2" class="animable"></path><path d="M176.36,334.1a59.09,59.09,0,0,1-1.36-7.65,60,60,0,0,1-.84-7.73,56.72,56.72,0,0,1,1.36,7.65A58,58,0,0,1,176.36,334.1Z" style="fill: rgb(69, 90, 100); transform-origin: 175.26px 326.41px;" id="elre210hzgmon" class="animable"></path><path d="M180.91,366a58.12,58.12,0,0,1-1.35-7.66,56,56,0,0,1-.84-7.73,58.12,58.12,0,0,1,1.35,7.66A57.8,57.8,0,0,1,180.91,366Z" style="fill: rgb(69, 90, 100); transform-origin: 179.815px 358.305px;" id="el1lohn9olx2r" class="animable"></path><path d="M185.57,398.67a59.78,59.78,0,0,1-1.35-7.65,58,58,0,0,1-.84-7.73,58.16,58.16,0,0,1,1.35,7.65A56,56,0,0,1,185.57,398.67Z" style="fill: rgb(69, 90, 100); transform-origin: 184.475px 390.98px;" id="elfjxvm1nmxgw" class="animable"></path><path d="M171.56,300.43a72.58,72.58,0,0,1-1.51-8.69,75.5,75.5,0,0,1-1-8.77,72.58,72.58,0,0,1,1.51,8.69A75.5,75.5,0,0,1,171.56,300.43Z" style="fill: rgb(69, 90, 100); transform-origin: 170.305px 291.7px;" id="ellrm7fmyh2b" class="animable"></path><path d="M229.13,292.22a74.33,74.33,0,0,1-1.5-8.7,72.74,72.74,0,0,1-1-8.77,76.4,76.4,0,0,1,1.5,8.7A75.27,75.27,0,0,1,229.13,292.22Z" style="fill: rgb(69, 90, 100); transform-origin: 227.88px 283.485px;" id="elcmbou2g0q4q" class="animable"></path><path d="M233.9,325.67a68.37,68.37,0,0,1-1.32-8.24,65.38,65.38,0,0,1-.81-8.31,69.23,69.23,0,0,1,1.32,8.25A65.15,65.15,0,0,1,233.9,325.67Z" style="fill: rgb(69, 90, 100); transform-origin: 232.835px 317.395px;" id="elrg158fubj8f" class="animable"></path><path d="M238.46,358.42a69.27,69.27,0,0,1-1.32-8.24,65.38,65.38,0,0,1-.81-8.31,68.37,68.37,0,0,1,1.32,8.24A65.38,65.38,0,0,1,238.46,358.42Z" style="fill: rgb(69, 90, 100); transform-origin: 237.395px 350.145px;" id="elw7fih0p3uq" class="animable"></path><path d="M243.13,390.08a97.5,97.5,0,0,1-1.85-14.31,101.24,101.24,0,0,1,1.85,14.31Z" style="fill: rgb(69, 90, 100); transform-origin: 242.205px 382.925px;" id="elrnrzbzhr2ok" class="animable"></path><path d="M208,345.8a60.2,60.2,0,0,1-1.29-7.9,60.8,60.8,0,0,1-.76-8,64.27,64.27,0,0,1,1.28,7.91A61.75,61.75,0,0,1,208,345.8Z" style="fill: rgb(69, 90, 100); transform-origin: 206.975px 337.85px;" id="elfd475zoryt" class="animable"></path><path d="M213,379.89a61.27,61.27,0,0,1-1.28-7.91,61.75,61.75,0,0,1-.77-8,61.27,61.27,0,0,1,1.28,7.91A61.75,61.75,0,0,1,213,379.89Z" style="fill: rgb(69, 90, 100); transform-origin: 211.975px 371.935px;" id="el8srwr9ye07h" class="animable"></path><path d="M393.71,384.53s-17.27,18.71-27.29,26.56a177.21,177.21,0,0,1-241.94-22.16s12.3-11.39,23.62-7.74,68.25,15.05,87.78,7.46,46.48-20,75.59-18.37S360.57,395.55,393.71,384.53Z" style="fill: rgb(69, 90, 100); transform-origin: 259.095px 409.435px;" id="el4xgtaonko9o" class="animable"></path><path d="M236.78,403.48a28.42,28.42,0,0,0,36.87,10.64c3.92-1.95,7.45-4.82,11.71-5.83,7.55-1.78,16.2,2.58,22.92-1.3,1.66-1,3.16-2.73,2.77-4.61-.46-2.18-3.05-3.08-5.26-3.38-12.47-1.72-25,3.13-37.59,2.41-5.29-.3-10.48-1.58-15.76-1.93s-10.9.35-15.12,3.54" style="fill: rgb(38, 50, 56); transform-origin: 273.946px 407.853px;" id="elletiu146zf" class="animable"></path><path d="M164.84,312.9c5,4,9.47,7.08,10.38,12.87.34,2.16.3,4.42,1.13,6.44,1.22,2.93,4.17,5.05,4.75,8.17.69,3.67-2.17,7.39-1.23,11,.73,2.85,3.63,4.72,4.5,7.53,1.21,3.88-1.77,7.79-2,11.84-.18,2.93,1.09,5.72,1.75,8.58s.86,7-1.42,8.85l-9.11-1.45a5.31,5.31,0,0,0,.73-5.18c-.65-1.59-1.67-3.07-1.93-4.77-.49-3.21,1.81-6.25,1.83-9.5,0-3.78-3-7-3.48-10.72-.51-4.08,2.09-8.24,1-12.2-.82-2.89-3.44-5-4.4-7.81-.89-2.63-.22-5.5.22-8.24C168.5,322.35,167.59,318.64,164.84,312.9Z" style="fill: rgb(55, 115, 208); transform-origin: 174.749px 350.54px;" id="elk1ewyc5inxa" class="animable"></path><path d="M188.17,389.05c4.14-1.77,7.34-7.27,6.55-11.71-.51-2.8-2.17-5.77-.83-8.29,1-1.78,3.15-2.63,4.08-4.43,1.79-3.45-2.12-7.43-1.53-11.27.54-3.51,4.56-5.48,5.73-8.83.72-2.06.27-4.31.35-6.48s1-4.67,3.16-5.18c-1.66-1.14-4.06-.52-5.54.86a13.63,13.63,0,0,0-3,5.21,13.33,13.33,0,0,1-3,5.2c-2.17,2-5.69,2.63-6.89,5.32-1.7,3.81,2.72,8.5.7,12.14-1.24,2.23-4.34,2.81-5.75,4.93-2.27,3.4,1.09,8.15-.28,12-.55,1.54-1.78,2.72-2.68,4.09s-1.5,3.59-.56,4.92" style="fill: rgb(55, 115, 208); transform-origin: 191.943px 360.658px;" id="eluphkhe35tw" class="animable"></path><path d="M141.24,349.4c-.05,2,1.56,3.74,3.39,4.58a27.56,27.56,0,0,0,5.84,1.44,8.49,8.49,0,0,1,5.21,2.78c1.37,1.85,1.42,4.54,3.11,6.09,2.33,2.14,6.63,1.08,8.61,3.54s.4,6.41,2.64,8.41a13.42,13.42,0,0,0,3.06,1.51c2.81,1.43,4.11,6.71,2.53,9.43l-9.38-1.61c-2.17-.66-3.2-2.38-3.75-4.59s-1-4.66-2.74-6.1-4.73-1.43-6.61-3c-3.1-2.55-2-8.07-5-10.71-1.52-1.33-3.71-1.55-5.42-2.63A6.47,6.47,0,0,1,141.24,349.4Z" style="fill: rgb(55, 115, 208); transform-origin: 158.143px 368.29px;" id="ele3ss3p9rfo7" class="animable"></path><path d="M178.1,387.13a2.73,2.73,0,0,1-.49-1,3.18,3.18,0,0,1,.82-2.77A12.24,12.24,0,0,1,180,382a10.28,10.28,0,0,0,1.81-1.71,3.94,3.94,0,0,0,.66-1.21,4.1,4.1,0,0,0,.18-1.44,9.3,9.3,0,0,0-.82-2.85,15.43,15.43,0,0,1-1-2.7,6.18,6.18,0,0,1,.09-2.61,7.09,7.09,0,0,1,.91-2.21,8,8,0,0,1,1.42-1.53,30.69,30.69,0,0,1,2.41-1.92c.59-.43.94-.63.93-.66a4.21,4.21,0,0,0-1,.53,21.66,21.66,0,0,0-2.51,1.84,8.08,8.08,0,0,0-1.52,1.56,7.48,7.48,0,0,0-1,2.3,6.41,6.41,0,0,0-.11,2.77,15.57,15.57,0,0,0,1,2.78,9.23,9.23,0,0,1,.8,2.72,3.74,3.74,0,0,1-.15,1.3,3.7,3.7,0,0,1-.59,1.11c-1,1.32-2.47,2.1-3.29,3.18a3.27,3.27,0,0,0-.76,3,1.83,1.83,0,0,0,.41.76C178,387.08,178.09,387.14,178.1,387.13Z" style="fill: rgb(38, 50, 56); transform-origin: 181.976px 375.146px;" id="eli0n0cwwuxq" class="animable"></path><path d="M202.74,333a2.76,2.76,0,0,0-.55.36,4.58,4.58,0,0,0-1.19,1.47,9.31,9.31,0,0,0-.88,2.85c-.2,1.15-.21,2.48-.4,3.92a7.2,7.2,0,0,1-1.75,4.23,6.87,6.87,0,0,1-2.22,1.31,8.83,8.83,0,0,0-2.52,1.35,4.24,4.24,0,0,0-1.4,2.68,8.29,8.29,0,0,0,.21,3.13,22.48,22.48,0,0,0,1.06,3.05,17.39,17.39,0,0,1,1,3.09,5.7,5.7,0,0,1-.13,3.15,6,6,0,0,1-1.85,2.44c-.78.67-1.64,1.25-2.42,1.91a6.51,6.51,0,0,0-1.91,2.33,5.46,5.46,0,0,0-.4,2.85,23.16,23.16,0,0,0,.48,2.63,14.22,14.22,0,0,1,.37,2.42,10.72,10.72,0,0,1-3.32,8.18,15.4,15.4,0,0,1-2,1.54,3.64,3.64,0,0,0,.58-.3,9.63,9.63,0,0,0,1.51-1.13,10.9,10.9,0,0,0,3.53-8.3,15.62,15.62,0,0,0-.36-2.48,23.71,23.71,0,0,1-.45-2.59,5,5,0,0,1,.38-2.67,6.32,6.32,0,0,1,1.82-2.19c.77-.64,1.63-1.22,2.44-1.9a6.34,6.34,0,0,0,2-2.61,6,6,0,0,0,.15-3.35c-.43-2.24-1.59-4.15-2.06-6.16a8,8,0,0,1-.22-3,3.9,3.9,0,0,1,1.27-2.45c1.41-1.21,3.45-1.4,4.73-2.71a5.43,5.43,0,0,0,1.3-2.17,10.58,10.58,0,0,0,.5-2.26c.18-1.46.16-2.78.34-3.92a9.33,9.33,0,0,1,.8-2.81A5.42,5.42,0,0,1,202.74,333Z" style="fill: rgb(38, 50, 56); transform-origin: 192.83px 360.445px;" id="el1vciiytfkww" class="animable"></path><path d="M168.38,320.09a6.46,6.46,0,0,1,1.43,2.34,10.94,10.94,0,0,1,.54,3.19c.05,1.27-.09,2.71-.11,4.33a9.81,9.81,0,0,0,1.09,5.15c.95,1.69,2.58,3,3.66,4.78a7.87,7.87,0,0,1,1,3,17.08,17.08,0,0,1,.05,3.36c-.13,2.28-.51,4.73.14,7.18s2.31,4.32,3.14,6.44a6,6,0,0,1,.42,3.22,11.92,11.92,0,0,1-1.17,3,8.7,8.7,0,0,0-1,3,9.86,9.86,0,0,0,.22,2.95,25.52,25.52,0,0,1,.46,2.68,7.09,7.09,0,0,1-.17,2.45,24.12,24.12,0,0,1-1.58,4,14.37,14.37,0,0,0-1.1,3.09,5.92,5.92,0,0,0,0,2.08l.14.52q0,.18.06.18a1.18,1.18,0,0,0,0-.19l-.1-.52a6.34,6.34,0,0,1,.12-2,14.79,14.79,0,0,1,1.16-3,23.86,23.86,0,0,0,1.64-4,7.39,7.39,0,0,0,.21-2.55c-.07-.89-.28-1.78-.44-2.71a9.67,9.67,0,0,1-.21-2.85,8.51,8.51,0,0,1,1-2.86,12.06,12.06,0,0,0,1.21-3.07,6.27,6.27,0,0,0-.43-3.44c-.87-2.19-2.47-4.07-3.11-6.4s-.27-4.74-.15-7.05a17.85,17.85,0,0,0,0-3.43,8,8,0,0,0-1.06-3.13c-1.14-1.86-2.76-3.15-3.69-4.76a9.7,9.7,0,0,1-1.09-5c0-1.6.13-3.05,0-4.34a10.73,10.73,0,0,0-.61-3.23,6,6,0,0,0-1.05-1.79A3.18,3.18,0,0,0,168.38,320.09Z" style="fill: rgb(38, 50, 56); transform-origin: 174.323px 353.56px;" id="elszat2o8f0pe" class="animable"></path><path d="M144.39,354.84a1.46,1.46,0,0,0,0,.46,2.6,2.6,0,0,0,.55,1.21,4.86,4.86,0,0,0,1.65,1.32,10.72,10.72,0,0,0,2.65.85,10.06,10.06,0,0,1,3.11,1.06,4.66,4.66,0,0,1,2,3c.37,1.28.41,2.71.81,4.17a6.66,6.66,0,0,0,.93,2.1,3.66,3.66,0,0,0,1.9,1.46c1.6.49,3.17,0,4.55.35a4,4,0,0,1,2.81,2.69,16.9,16.9,0,0,1,.8,3.71,9,9,0,0,0,1,3.23,6.87,6.87,0,0,0,3.75,3,6.14,6.14,0,0,0,1.3.28,1.4,1.4,0,0,0,.47,0,9.23,9.23,0,0,1-1.71-.42,6.88,6.88,0,0,1-3.57-3,8.9,8.9,0,0,1-.94-3.14,17.33,17.33,0,0,0-.79-3.79,5.52,5.52,0,0,0-1.11-1.83,3.7,3.7,0,0,0-2-1.11c-1.51-.32-3.07.11-4.51-.35a3.28,3.28,0,0,1-1.7-1.3,6.58,6.58,0,0,1-.88-2c-.39-1.39-.44-2.83-.82-4.16a5,5,0,0,0-2.21-3.18,10,10,0,0,0-3.21-1,10.55,10.55,0,0,1-2.62-.78,4.94,4.94,0,0,1-1.63-1.21A3.13,3.13,0,0,1,144.39,354.84Z" style="fill: rgb(38, 50, 56); transform-origin: 158.521px 369.295px;" id="el137490bv0o2o" class="animable"></path><path d="M174.88,367.86a4.07,4.07,0,0,0-.43.71,19.47,19.47,0,0,0-.94,2.07A23.12,23.12,0,0,0,172,378a22.82,22.82,0,0,0,.2,4.13,9.72,9.72,0,0,0,.92,3.26,4.34,4.34,0,0,0,1.5,1.73,2.2,2.2,0,0,0,.56.28c.13.05.2.06.21.05s-.27-.14-.68-.45a4.52,4.52,0,0,1-1.33-1.74,9.89,9.89,0,0,1-.82-3.18,25.22,25.22,0,0,1,1.22-11.31C174.39,368.94,175,367.89,174.88,367.86Z" style="fill: rgb(38, 50, 56); transform-origin: 173.685px 377.657px;" id="elbvg4c38fznn" class="animable"></path><path d="M396.17,346.51a1.94,1.94,0,0,0,.34-1.54c-.37-1-1.89-.71-2.7,0-2.29,1.89-3.33,5.42-6.19,6.17a9.15,9.15,0,0,0-2,.48c-1.25.63-1.57,2.23-2,3.57s-1.51,2.84-2.88,2.51c-.77-.18-1.28-.87-1.89-1.36s-1.66-.7-2.09-.05a1.93,1.93,0,0,0,0,1.56,15.86,15.86,0,0,1-1.49,11,46.83,46.83,0,0,1-6.56,9.24c-.75-7.2,6.32-13.4,5.89-20.63-.11-1.74-.65-3.44-.82-5.18-.43-4.38,2.17-9.24,6.47-10.19.78-.18,1.69-.27,2.16-.92.72-1-.3-2.48-1.51-2.68a5.46,5.46,0,0,0-3.45,1,5.86,5.86,0,0,1,4.95-4.39,14,14,0,0,0,3.5-.3c1.1-.41,1.92-1.92,1.1-2.76-1.3-1.34-3.86,1.15-5.3,0-.95-.8-.35-2.33.25-3.42s1-2.75-.1-3.33-2.29.81-2.84,2q-4.47,9.64-8.93,19.31c-.86,1.87-1.74,3.87-1.49,5.91a17.36,17.36,0,0,0,1.4,4,5.37,5.37,0,0,1,.24,4.15c-.59,1.3-2.43,2-3.51,1.12a3.65,3.65,0,0,1-1-2c-.7-3-1.41-6.17-.62-9.16s2.87-5.39,2.93-8.37c0-2.28-1.13-4.73,0-6.72a7.9,7.9,0,0,1,2.41-2.26,4.38,4.38,0,0,0,1.94-2.61c.18-1.09-.77-2.38-1.85-2.12-1.51.36-1.66,3-3.2,3.11-1,.05-1.63-1.13-1.43-2.08a4.92,4.92,0,0,1,1.67-2.33l3.85-3.57c.91-.84,1.91-2,1.52-3.16a2.27,2.27,0,0,0-3-1.08,6.7,6.7,0,0,0-2.6,2.42,6.74,6.74,0,0,0,.38-2.66,2.29,2.29,0,0,0-1.56-2c-1.3-.31-2.46,1-2.7,2.32s.06,2.66-.08,4-1,2.76-2.35,2.77a2.41,2.41,0,0,1-2.16-2.36,5.9,5.9,0,0,1,1.07-3.31,11.15,11.15,0,0,0,1.52-3.17,2.93,2.93,0,0,0-1.07-3.14c-1-.61-2.64.08-2.59,1.26-.24-1.46-.94-3.32-2.42-3.2s-1.85,1.9-1.86,3.28a27,27,0,0,0,2.95,12.43c1.2,2.34,2.74,4.5,3.86,6.88a11.82,11.82,0,0,1,1.25,7.64,38.68,38.68,0,0,1-1.75,4.47,14,14,0,0,0,1.33,12.25c-1,.09-1.73-.71-2.48-1.3s-2-1-2.57-.25a1.5,1.5,0,0,0,.23,1.91,5.86,5.86,0,0,0,1.77,1.1,11.79,11.79,0,0,1,6.09,7.7c-1.77.22-3.21-2.69-4.73-1.77-1,.6-.55,2.23.38,2.92s2.15.94,3,1.71A3.34,3.34,0,0,1,363,376c-1.25,1.24-3.2.72-4.71-.19a13.05,13.05,0,0,1-5.74-8.19c-.93-2.75.17-5.76.5-8,.4-2.7,2.28-5.05,2.49-7.77s-1.2-5.85.07-8.38a12.63,12.63,0,0,1,2.81-3.08,4.59,4.59,0,0,0,1.74-3.65c-.19-1.39-2-2.46-3.06-1.5-.5.48-.71,1.33-1.38,1.47s-1.26-.62-1.27-1.32a8.17,8.17,0,0,1,.51-2,1.71,1.71,0,0,0-.51-1.9,1.44,1.44,0,0,0-1.88.74,4.24,4.24,0,0,0-.22,2.24c.17,2.09.35,4.19.52,6.29,0,.55,0,1.24-.48,1.49s-1-.12-1.4-.49a9.59,9.59,0,0,1-2.68-6.88,13.71,13.71,0,0,1,2.28-7.13,16.59,16.59,0,0,0,1.8-3.06,3.44,3.44,0,0,0-.36-3.38,2,2,0,0,0-3.05,0c-.52.88-.08,2,0,3,.2,2.29-1.44,4.26-2.42,6.33A11.68,11.68,0,0,0,348.3,343c.93,1.08,2.06,2,2.94,3.08a5,5,0,0,1,1.28,3.93,2.65,2.65,0,0,1-3.09,2.18,3.44,3.44,0,0,1-2-2.65,11.43,11.43,0,0,0-1-3.3c-.6-1-2-1.63-2.92-1a2.37,2.37,0,0,0-.77,2.09c.17,3.61,3.71,6,5.3,9.27a9.29,9.29,0,0,1,0,8,5.27,5.27,0,0,0-2.22-2.26c-1-.39-2.42.16-2.47,1.24a2.23,2.23,0,0,0,.72,1.52,8.86,8.86,0,0,0,4.18,2.6c-.33,2.83,1.34,5.54,3.4,7.51s4.54,3.47,6.56,5.48,3.48,5.35,3,8.16l12.82-.09a6.74,6.74,0,0,1,4.75-5.9c1.36-.38,2.84-.32,4.14-.87s2.4-2.1,1.74-3.35a2.38,2.38,0,0,0-2.23-1.09,6.89,6.89,0,0,0-2.49.74,1.68,1.68,0,1,0-2.25-2.48c-.59.65-.59,1.64-.95,2.45s-1.61,1.36-2.05.6a1.56,1.56,0,0,1,.06-1.28c.75-2.17,1.58-4.46,3.33-5.95,3.61-3.08,9.79-1.72,13-5.19a2.65,2.65,0,0,0,.84-2.38c-.38-1.44-2.42-1.69-3.77-1.07s-2.45,1.78-3.87,2.21-3.43-.46-3.22-1.93a2.37,2.37,0,0,1,2-1.72c.92-.21,1.87-.15,2.77-.4a2.19,2.19,0,0,0,1.77-1.9,1.27,1.27,0,0,0-1.53-1.09A39.5,39.5,0,0,0,396.17,346.51Z" style="fill: rgb(69, 90, 100); transform-origin: 369.634px 350.602px;" id="elf9omjdjg5qu" class="animable"></path></g><g id="freepik--fish-bowl--inject-3" class="animable" style="transform-origin: 255.799px 282.106px;"><path d="M451,271.55s0,1.39,0,4.08-.2,6.71-.56,11.95a194.73,194.73,0,0,1-9,44.92A198.42,198.42,0,0,1,428.49,363c-2.91,5.3-6,10.8-9.67,16.24l-1.36,2.07c-.47.67-.95,1.35-1.44,2-1,1.36-1.92,2.75-2.93,4.12-2.07,2.71-4.13,5.49-6.4,8.18s-4.63,5.4-7,8.13l-3.8,4c-1.26,1.35-2.64,2.62-4,3.95A195,195,0,0,1,330.67,452l-.07-.38h14.12c1.2,0,2.37,0,3.6,0a7.86,7.86,0,0,1,3.47,1.22,7.77,7.77,0,0,1,2.5,2.72,7.6,7.6,0,0,1,0,7.23,7.7,7.7,0,0,1-2.55,2.77,7.58,7.58,0,0,1-3.58,1.22c-1.27.06-2.5,0-3.75,0H329.26l-63.93,0h-100a8.8,8.8,0,0,1-4.52-.81,7.65,7.65,0,0,1,1.87-14.33,11,11,0,0,1,2.35-.16h16.22l-.1.48A196,196,0,0,1,69.32,329.48a200.44,200.44,0,0,1-7.48-35.68,204.62,204.62,0,0,1,4.56-70.88,197.82,197.82,0,0,1,11.28-32.84,188.54,188.54,0,0,1,37.83-55.37A191.22,191.22,0,0,1,167.37,97.4l0,0h.06l181.46,2.43h0l0,0a198.12,198.12,0,0,1,37.62,26.65,193.21,193.21,0,0,1,15,15.08c2.32,2.53,4.44,5.16,6.57,7.72s4.08,5.19,5.93,7.82,3.64,5.24,5.4,7.8,3.32,5.18,4.79,7.78c3.07,5.13,5.67,10.27,8.08,15.22a197.79,197.79,0,0,1,10.73,28.14,194.68,194.68,0,0,1,7.43,41c.3,4.76.46,8.39.46,10.84s0,3.69,0,3.69,0-1.25-.09-3.69-.19-6.08-.5-10.83a196.3,196.3,0,0,0-7.53-40.92A198.46,198.46,0,0,0,432.15,188c-2.41-4.94-5-10.07-8.09-15.19-1.47-2.6-3.16-5.13-4.8-7.76s-3.46-5.21-5.39-7.78-3.89-5.18-5.93-7.8-4.26-5.18-6.57-7.71a192.58,192.58,0,0,0-15-15,197.8,197.8,0,0,0-37.57-26.58l.09,0L167.47,97.86l.11,0a190.64,190.64,0,0,0-51.72,37.23,188.06,188.06,0,0,0-37.71,55.22A197.48,197.48,0,0,0,66.9,223a203.63,203.63,0,0,0-4.54,70.7,200.49,200.49,0,0,0,7.46,35.59A195.57,195.57,0,0,0,181.38,451.61l1.16.48H165.06a10.47,10.47,0,0,0-2.25.15,7.16,7.16,0,0,0-1.75,13.4,6.65,6.65,0,0,0,2.08.66,12.48,12.48,0,0,0,2.22.1H344.44c1.24,0,2.51,0,3.72,0a7.11,7.11,0,0,0,3.39-1.15,7.22,7.22,0,0,0,3.26-6.05,7.52,7.52,0,0,0-.88-3.41,7.39,7.39,0,0,0-2.37-2.57,7.14,7.14,0,0,0-3.27-1.15c-1.16-.07-2.39,0-3.57,0H329.61l.91-.38a194.58,194.58,0,0,0,61.13-40.23c1.33-1.33,2.71-2.59,4-3.94l3.79-4c2.41-2.72,4.84-5.35,7-8.11s4.34-5.46,6.41-8.16c1-1.36,2-2.75,2.93-4.11l1.44-2,1.35-2.06c3.68-5.42,6.77-10.92,9.69-16.21a198.72,198.72,0,0,0,12.94-30.39,195.34,195.34,0,0,0,9.11-44.85c.39-5.24.6-9.25.62-11.95S451,271.55,451,271.55Z" style="fill: rgb(38, 50, 56); transform-origin: 255.799px 282.106px;" id="elty06c1uq3ks" class="animable"></path><path d="M348.93,100a3.46,3.46,0,0,1-.45.13l-1.36.32-5.21,1.2c-4.52,1.08-11.12,2.4-19.29,3.91l-6.44,1.06-3.42.57-3.57.48-7.51,1c-2.59.29-5.25.53-8,.81A308.45,308.45,0,0,1,258,110.72c-25.4-.71-48.14-4.51-64.45-7.56-8.16-1.58-14.75-2.93-19.28-4L169,98.06l-1.36-.32-.46-.12a4.14,4.14,0,0,1,.47.07L169,98,174.28,99c4.55,1,11.14,2.25,19.31,3.79,16.32,3,39,6.69,64.39,7.4a312.57,312.57,0,0,0,35.67-1.2l8-.78,7.5-1,3.57-.47,3.42-.55,6.43-1c8.18-1.46,14.78-2.73,19.31-3.75l5.24-1.1,1.36-.27Z" style="fill: rgb(38, 50, 56); transform-origin: 258.055px 104.211px;" id="elmza6hf39sai" class="animable"></path><path d="M159.31,129.65A17,17,0,0,1,156.8,132l-3.16,2.67-2,1.69c-.71.61-1.42,1.32-2.2,2l-5.16,4.82c-1.84,1.8-3.72,3.88-5.82,6s-4.12,4.66-6.35,7.23-4.38,5.48-6.67,8.49c-.57.75-1.14,1.52-1.73,2.29s-1.09,1.61-1.65,2.43c-1.09,1.65-2.22,3.33-3.36,5s-2.19,3.56-3.29,5.39-2.23,3.72-3.3,5.66-2,4-3.1,6c-.51,1-1.07,2-1.57,3.1L106,198.13c-1,2.17-2,4.34-2.89,6.6s-1.73,4.58-2.61,6.92-1.61,4.76-2.4,7.19-1.6,4.89-2.17,7.44S94.65,231.38,94,234s-1,5.27-1.5,7.94a179.66,179.66,0,0,0-2.45,33.47,179,179,0,0,0,4.37,33.28q1,4,1.94,7.84l2.36,7.56c.71,2.52,1.72,4.91,2.6,7.31s1.72,4.78,2.8,7,2,4.54,3,6.76,2.19,4.31,3.26,6.42l1.61,3.14c.56,1,1.17,2,1.75,3l3.43,5.84c1.18,1.88,2.44,3.67,3.62,5.47s2.3,3.57,3.59,5.19l3.65,4.84c.61.78,1.17,1.59,1.79,2.33s1.24,1.47,1.86,2.19c2.46,2.87,4.71,5.69,7.14,8.09s4.5,4.87,6.76,6.86,4.21,4,6.15,5.7l5.42,4.51c.82.67,1.57,1.34,2.32,1.91l2.11,1.57,3.31,2.49a17,17,0,0,1,2.64,2.19,17,17,0,0,1-2.94-1.76l-3.46-2.29-2.2-1.48c-.77-.55-1.55-1.18-2.4-1.83l-5.6-4.37c-2-1.65-4.07-3.57-6.35-5.58s-4.52-4.35-7-6.78-4.82-5.18-7.35-8l-1.91-2.19c-.64-.74-1.22-1.54-1.84-2.33l-3.76-4.84c-1.32-1.62-2.45-3.43-3.7-5.21s-2.5-3.59-3.71-5.49l-3.54-5.87c-.59-1-1.22-2-1.79-3l-1.66-3.16c-1.1-2.13-2.28-4.26-3.36-6.47s-2-4.53-3.09-6.83S100,334.64,99,332.23s-1.94-4.85-2.67-7.4l-2.43-7.66q-1-3.93-2-7.94a179,179,0,0,1-4.49-33.79,179,179,0,0,1,2.55-34q.78-4.05,1.55-8c.66-2.62,1.32-5.22,2-7.78s1.48-5.06,2.24-7.54,1.5-4.93,2.47-7.27l2.7-7c.94-2.28,2-4.47,3-6.66l1.48-3.25c.51-1.06,1.08-2.09,1.62-3.12l3.19-6.07c1.1-2,2.29-3.83,3.4-5.69s2.16-3.72,3.39-5.41,2.34-3.41,3.48-5c.57-.82,1.1-1.66,1.7-2.44l1.78-2.28c2.36-3,4.53-5.94,6.88-8.46s4.35-5.08,6.56-7.17,4.11-4.17,6-5.93,3.73-3.28,5.34-4.68c.81-.7,1.55-1.38,2.29-2l2.11-1.6,3.33-2.49A16.88,16.88,0,0,1,159.31,129.65Z" style="fill: rgb(255, 255, 255); transform-origin: 127.451px 273.275px;" id="elrz9ramqvkr" class="animable"></path><path d="M349.67,109.67c.05.17-2.34.89-6.71,2l-3.63.94c-1.34.32-2.8.61-4.36,1-3.14.65-6.7,1.48-10.68,2.1L318,116.76c-2.17.36-4.45.61-6.8.94-4.7.69-9.75,1.13-15.06,1.64a346.71,346.71,0,0,1-34.71,1c-12.33-.35-24-1.38-34.63-2.75-5.28-.78-10.31-1.47-15-2.39-2.33-.45-4.59-.82-6.74-1.29l-6.19-1.37c-3.95-.83-7.46-1.83-10.56-2.63-1.54-.42-3-.79-4.31-1.17l-3.58-1.12c-4.3-1.36-6.65-2.19-6.6-2.37s2.5.33,6.87,1.39l3.63.89,4.34,1c3.12.67,6.65,1.54,10.6,2.25l6.18,1.2c2.15.41,4.41.73,6.73,1.13,4.65.83,9.65,1.43,14.9,2.14,10.54,1.22,22.16,2.18,34.39,2.52s23.88-.1,34.46-.8c5.28-.44,10.31-.8,15-1.39,2.34-.28,4.61-.49,6.78-.79l6.23-.89c4-.51,7.55-1.21,10.7-1.72l4.39-.74,3.67-.71C347.16,109.87,349.63,109.49,349.67,109.67Z" style="fill: rgb(255, 255, 255); transform-origin: 261.745px 112.817px;" id="eltq0ct1d3ks" class="animable"></path><path d="M195.54,429.81c-.33.64-4.28-.76-8.83-3.12s-8-4.8-7.64-5.44,4.29.76,8.84,3.13S195.88,429.17,195.54,429.81Z" style="fill: rgb(255, 255, 255); transform-origin: 187.304px 425.53px;" id="el1csw5ot7x95" class="animable"></path><path d="M331.86,452.05c0,.14-33.72.26-75.3.26s-75.3-.12-75.3-.26,33.71-.26,75.3-.26S331.86,451.91,331.86,452.05Z" style="fill: rgb(38, 50, 56); transform-origin: 256.56px 452.05px;" id="el9fngecijdfc" class="animable"></path></g><g id="freepik--Starfish--inject-3" class="animable" style="transform-origin: 383.494px 221.131px;"><path d="M365.33,188.76h0c-2.51,2.32,12.18,24.94,8.5,26.87s-26.48,12.76-23.77,13.14,27.25-6,28-4.06,2.7,29.77,5.6,28.8,1.93-28.22,6-27.25,26.29,7.92,27.45,5.8S394,219.85,393.36,216.21c-.58-3.29,11.59-25.13,9.66-24.55s-16.63,18-19.52,17.4C380,208.28,367.65,187.8,365.33,188.76Z" style="fill: rgb(55, 115, 208); transform-origin: 383.494px 221.131px;" id="elucbf6znupbr" class="animable"></path></g><g id="freepik--Seashell--inject-3" class="animable" style="transform-origin: 269.302px 390.594px;"><path d="M235.81,399.53a21.89,21.89,0,0,1,28.67-25.83c3.64-3.72,9.56-4.12,14.63-2.95a59.13,59.13,0,0,1,7.13,2.28c2.68,1,5.52,2.07,7.21,4.37a3.88,3.88,0,0,1,6.11,1.14,2,2,0,0,1,2.93-.42,3.17,3.17,0,0,1,.81,3.15,9.23,9.23,0,0,1-1.59,3c-2.17,3.14-4.78,6.55-8.56,7.07A12,12,0,0,1,280,398.55c.81,2.38-1.39,4.66-3.48,6.06-6.44,4.35-14.24,7-22,6.3s-15.4-4.35-18.71-11.38" style="fill: rgb(55, 115, 208); transform-origin: 269.302px 390.594px;" id="el7gmgs5azjz" class="animable"></path><path d="M280,398.55a5,5,0,0,1-1.21-.3,13.93,13.93,0,0,1-1.39-.46l-1.79-.78a17.92,17.92,0,0,1-7.94-7.84,31.1,31.1,0,0,1-2.93-10.83c-.15-1.43-.22-2.59-.25-3.4a7,7,0,0,1,0-1.24,4.93,4.93,0,0,1,.2,1.23c.08.8.21,1.95.41,3.36a33.36,33.36,0,0,0,3,10.64,18.31,18.31,0,0,0,7.64,7.76l1.73.83c.5.25,1,.38,1.35.54A6,6,0,0,1,280,398.55Z" style="fill: rgb(38, 50, 56); transform-origin: 272.231px 386.125px;" id="elg9zgv4hjlk" class="animable"></path><path d="M293.15,391.36a3.67,3.67,0,0,1-.93-.26,12.41,12.41,0,0,1-2.35-1.16,14.85,14.85,0,0,1-5.72-6.41,14.24,14.24,0,0,1-1.29-4.61,7.24,7.24,0,0,1,.49-3.89,3.8,3.8,0,0,1,1.88-1.87,1.68,1.68,0,0,1,.95-.18s-.34.08-.87.36a3.86,3.86,0,0,0-1.63,1.84,7.13,7.13,0,0,0-.34,3.69,14.33,14.33,0,0,0,1.28,4.44,15.58,15.58,0,0,0,5.45,6.33C291.87,390.86,293.19,391.25,293.15,391.36Z" style="fill: rgb(38, 50, 56); transform-origin: 287.965px 382.165px;" id="elqrtx1xcdqnc" class="animable"></path><path d="M300.54,385.94a2.87,2.87,0,0,1-2,.38,7.11,7.11,0,0,1-4.32-2.4,6,6,0,0,1-1.44-4.71,3.39,3.39,0,0,1,.71-1.93c.09,0-.28.74-.35,2a6.06,6.06,0,0,0,1.47,4.33,7.31,7.31,0,0,0,4,2.38A9,9,0,0,0,300.54,385.94Z" style="fill: rgb(38, 50, 56); transform-origin: 296.636px 381.822px;" id="ellqkzzq5spg" class="animable"></path><path d="M303,382.17s-.23.54-1.06.85a2.71,2.71,0,0,1-1.54.06,2.37,2.37,0,0,1-1.5-1.17,3.62,3.62,0,0,1,.2-3.28c.47-.78,1.15-.82,1.13-.75s-.49.22-.81.93a3.59,3.59,0,0,0-.05,2.86,2,2,0,0,0,1.17.95,2.49,2.49,0,0,0,1.29.05C302.57,382.49,302.93,382.1,303,382.17Z" style="fill: rgb(38, 50, 56); transform-origin: 300.8px 380.51px;" id="elddjodxqbtou" class="animable"></path><path d="M261.2,375.4c0,.1-1.59-.19-4.13,0a21.41,21.41,0,0,0-16.63,9.53c-1.42,2.12-2,3.63-2.06,3.59a4.22,4.22,0,0,1,.35-1.07,18.76,18.76,0,0,1,1.4-2.72,20.6,20.6,0,0,1,16.92-9.7,19.2,19.2,0,0,1,3.06.16A4.17,4.17,0,0,1,261.2,375.4Z" style="fill: rgb(255, 255, 255); transform-origin: 249.79px 381.772px;" id="elj5hlb0f7go" class="animable"></path><path d="M281.87,374.19c-.05.07-.86-.5-2.31-1.08a13.25,13.25,0,0,0-11.72.86c-1.35.79-2.07,1.47-2.13,1.41a6.54,6.54,0,0,1,1.94-1.72,12.41,12.41,0,0,1,12.05-.89A6.37,6.37,0,0,1,281.87,374.19Z" style="fill: rgb(255, 255, 255); transform-origin: 273.79px 373.5px;" id="el01yt8rhng7mi" class="animable"></path><path d="M273.72,392.86a3.3,3.3,0,0,1-1.39-.63,9.34,9.34,0,0,1-4-6,3.32,3.32,0,0,1-.05-1.53,16.41,16.41,0,0,0,1.89,4.66A16.62,16.62,0,0,0,273.72,392.86Z" style="fill: rgb(255, 255, 255); transform-origin: 270.967px 388.78px;" id="elv2wa6u0dw8" class="animable"></path><path d="M286.78,384.68a4.61,4.61,0,0,1-1.8-2.43,4.69,4.69,0,0,1-.43-3c.15,0,.29,1.31.91,2.8S286.9,384.58,286.78,384.68Z" style="fill: rgb(255, 255, 255); transform-origin: 285.63px 381.965px;" id="elsq2xcxrfc68" class="animable"></path><path d="M296.5,383.63c-.08.11-.89-.43-1.39-1.48s-.44-2-.3-2,.31.85.77,1.79S296.6,383.52,296.5,383.63Z" style="fill: rgb(255, 255, 255); transform-origin: 295.611px 381.897px;" id="el86mew49bs4b" class="animable"></path><path d="M300.88,382.2c0,.06-.22.07-.48-.08a1.82,1.82,0,0,1-.75-.88,1.79,1.79,0,0,1-.07-1.15c.09-.29.23-.43.29-.4s0,.68.27,1.35S300.94,382.07,300.88,382.2Z" style="fill: rgb(255, 255, 255); transform-origin: 300.201px 380.964px;" id="elttvvyf5azkg" class="animable"></path><path d="M292.27,378.16a10.94,10.94,0,0,0-3.28-2.33,11.16,11.16,0,0,0-4-.53c0-.06.42-.27,1.19-.37a6.39,6.39,0,0,1,5.46,2.15C292.15,377.67,292.32,378.13,292.27,378.16Z" style="fill: rgb(255, 255, 255); transform-origin: 288.634px 376.528px;" id="elg6tinapvjg4" class="animable"></path><path d="M297.65,377.75c-.1.11-.71-.3-1.55-.22s-1.39.54-1.5.45,0-.25.26-.48a2.08,2.08,0,0,1,2.45-.18C297.59,377.51,297.69,377.7,297.65,377.75Z" style="fill: rgb(255, 255, 255); transform-origin: 296.108px 377.498px;" id="elbusng6zihj" class="animable"></path></g><g id="freepik--Fishes--inject-3" class="animable" style="transform-origin: 289.607px 245.434px;"><path d="M301.81,194.91A19.7,19.7,0,0,0,291.05,180a5.65,5.65,0,0,0-4.07-.66c-.62.2-1.16.58-1.78.78a8.2,8.2,0,0,1-4-.15,5.67,5.67,0,0,0-3.62.3,2.38,2.38,0,0,0-1.11,3.12,3.51,3.51,0,0,0,1.74,1.21l24,10.35" style="fill: rgb(55, 115, 208); transform-origin: 289.233px 187.081px;" id="elk61uf5tnb7o" class="animable"></path><g id="el3t66nowmlki"><g style="opacity: 0.3; transform-origin: 289.333px 187.808px;" class="animable"><path d="M300.63,193.35c1.77,1.46-6.26-9.39-15.34-10.82-2.63-.42-5.72-.95-7.5,1C277.79,183.56,293.37,187.35,300.63,193.35Z" id="elkxlby4sudc" class="animable" style="transform-origin: 289.333px 187.808px;"></path></g></g><path d="M270.62,182.53a43.53,43.53,0,0,0-7.39-8.66c-2.93-2.43-6.69-4.1-10.48-3.76a4.85,4.85,0,0,0-3.73,1.83,11.62,11.62,0,0,1-.93,1.61c-.83.92-2.31.9-3.26,1.69-1.43,1.19-.89,3.68.57,4.83s3.44,1.32,5.29,1.45L270.74,183" style="fill: rgb(55, 115, 208); transform-origin: 257.366px 176.533px;" id="elmk1qmq6qa0s" class="animable"></path><path d="M247.73,201a9.59,9.59,0,0,1-5-1.32,14.12,14.12,0,0,0-5-1.79c-1.76-.14-3.74.66-4.35,2.32-.77,2.13,1,4.3,2.77,5.71a29.79,29.79,0,0,0,21.71,6.1" style="fill: rgb(55, 115, 208); transform-origin: 245.527px 205.044px;" id="el4a83guz2xlq" class="animable"></path><path d="M310.67,205.93c-2.18-7.39-9.72-16-33.18-22.15s-41-2.23-41-2.23-4,1.3-20.52,3.2-21.45,15.11-14.25,19.39c2.81,1.67,13-9.88,13-9.88-5.24,7.58,0,16,3.68,18.74s7.32.4,10.71-3.71.06-14.28.06-14.28,1.81-2.15,9.36-1.06,14.92,17.28,19.53,19.86,23.53,12.07,38.92,11.6S312.85,213.32,310.67,205.93Z" style="fill: rgb(255, 255, 255); transform-origin: 255.058px 202.873px;" id="elyah6xjgyo9k" class="animable"></path><polygon points="240.3 194.5 240.3 194.5 240.3 194.5 240.3 194.5" style="fill: rgb(55, 115, 208); transform-origin: 240.3px 194.5px;" id="elqgt77qf4ab" class="animable"></polygon><path d="M272.85,182.68a105.49,105.49,0,0,0-22.29-2.35s-3.52,2.53-3.9,4.8-.77,4.56-.77,4.56c-3.4.53-5.11,5-5.11,5h0c5.72,2.93,11.18,13,15.23,17.35C257.37,191.39,271.24,183.52,272.85,182.68Z" style="fill: rgb(55, 115, 208); transform-origin: 256.815px 196.185px;" id="ellx022l3i62g" class="animable"></path><path d="M299.64,192.7l-.07,0a63.85,63.85,0,0,0-7.62-4l-.93-.39-.39-.17c-2.08-.86-4.37-1.7-6.89-2.5l-.16-.05-.5-.15c-2.24,2.56-1.94,5.55-1.91,9s.15,7-1.59,10a16.23,16.23,0,0,1-4.72,4.58q-3.47,2.51-7.09,4.76c-1.36.85-2.9,2-2.94,3.56a106.3,106.3,0,0,0,18.06,6.45s-.33-12.91,3.44-17.58C286.33,206.08,291.12,196.24,299.64,192.7Z" style="fill: rgb(55, 115, 208); transform-origin: 282.235px 204.615px;" id="el3vzhv9qix1i" class="animable"></path><path d="M310.67,205.93a19.57,19.57,0,0,0-3.39-6.5s-10.56,1.84-13.4,9.89a49.72,49.72,0,0,0-2.67,15.84,42.91,42.91,0,0,0,5.74.25C312.33,224.94,312.85,213.32,310.67,205.93Z" style="fill: rgb(55, 115, 208); transform-origin: 301.41px 212.426px;" id="elszejmue3hse" class="animable"></path><path d="M230.33,194.3a65,65,0,0,1-2.86-11.05c-2.91.43-6.68.94-11.54,1.5-16.53,1.9-21.45,15.11-14.25,19.39,2.81,1.67,13-9.88,13-9.88-5.24,7.58,0,16,3.68,18.74s7.32.4,10.71-3.71.06-14.28.06-14.28A3.35,3.35,0,0,1,230.33,194.3Z" style="fill: rgb(55, 115, 208); transform-origin: 214.525px 198.717px;" id="el22q602e0dmx" class="animable"></path><path d="M268,181.91a18.51,18.51,0,0,1-2.47-1,57,57,0,0,0-6-2.24,56.22,56.22,0,0,0-6.27-1.5,20,20,0,0,1-2.64-.51,10.39,10.39,0,0,1,2.69.14,38.56,38.56,0,0,1,6.37,1.37,37.72,37.72,0,0,1,6,2.41A11.22,11.22,0,0,1,268,181.91Z" style="fill: rgb(38, 50, 56); transform-origin: 259.31px 179.269px;" id="elsjflfpd2ypa" class="animable"></path><path d="M307.33,211.8a3.14,3.14,0,1,1-2.57-3.62A3.13,3.13,0,0,1,307.33,211.8Z" style="fill: rgb(255, 255, 255); transform-origin: 304.235px 211.276px;" id="el69wh6tfg0b2" class="animable"></path><path d="M306.43,211.65a2.12,2.12,0,1,1-1.74-2.44A2.12,2.12,0,0,1,306.43,211.65Z" style="fill: rgb(38, 50, 56); transform-origin: 304.339px 211.301px;" id="el9txbo5k3qsl" class="animable"></path><path d="M309.46,220.36A35.62,35.62,0,0,1,303.8,218a37.46,37.46,0,0,1-5.44-2.8,35.24,35.24,0,0,1,5.66,2.33A37,37,0,0,1,309.46,220.36Z" style="fill: rgb(38, 50, 56); transform-origin: 303.91px 217.78px;" id="elgdtzsrwj57b" class="animable"></path><path d="M297.71,217.17c-.06,0-.29-.12-.6-.48a2.28,2.28,0,0,1-.43-.75,1.61,1.61,0,0,1,0-1.12,1.75,1.75,0,0,1,.74-.84,2.2,2.2,0,0,1,.85-.2c.47,0,.76.06.76.13s-.28.13-.71.24a2.75,2.75,0,0,0-.67.25,1.4,1.4,0,0,0-.48.62,1.66,1.66,0,0,0,.2,1.46C297.62,216.87,297.77,217.12,297.71,217.17Z" style="fill: rgb(38, 50, 56); transform-origin: 297.805px 215.475px;" id="elig1ssssscg" class="animable"></path><path d="M304.32,196.25a6,6,0,0,1-.66-.49c-.43-.32-1-.83-1.86-1.41a50.05,50.05,0,0,0-7.35-4.45,69.29,69.29,0,0,0-11.87-4.58,117.25,117.25,0,0,0-15.26-3.25,126.14,126.14,0,0,0-15.55-1.44,94.89,94.89,0,0,0-12.73.52,85.48,85.48,0,0,0-8.49,1.4l-2.27.54a6.12,6.12,0,0,1-.81.16,4.59,4.59,0,0,1,.78-.26l2.26-.64a72.2,72.2,0,0,1,8.49-1.56,89.19,89.19,0,0,1,12.78-.64,123,123,0,0,1,15.62,1.4,113.52,113.52,0,0,1,15.32,3.31,68.41,68.41,0,0,1,11.9,4.71,46.9,46.9,0,0,1,7.3,4.61c.82.61,1.4,1.15,1.8,1.5A4.08,4.08,0,0,1,304.32,196.25Z" style="fill: rgb(38, 50, 56); transform-origin: 265.895px 188.189px;" id="elb8a1ounalat" class="animable"></path><path d="M264.81,217.2s0-.14.07-.4a4.43,4.43,0,0,1,.42-1.08,8.13,8.13,0,0,1,3.05-2.95c.76-.48,1.63-.94,2.53-1.46s1.84-1.13,2.81-1.79a20.38,20.38,0,0,0,5.5-5.12,13,13,0,0,0,1.86-7.17c.05-2.34-.06-4.48.07-6.27a12.73,12.73,0,0,1,.89-4.15,6.17,6.17,0,0,1,.52-1,1.45,1.45,0,0,1,.22-.33,14.75,14.75,0,0,0-1.26,5.54c-.09,1.77.06,3.88,0,6.25a13.35,13.35,0,0,1-1.9,7.46,20,20,0,0,1-5.68,5.23c-1,.66-1.93,1.25-2.86,1.77s-1.79.95-2.55,1.4a8.15,8.15,0,0,0-3.06,2.73C265,216.66,264.87,217.22,264.81,217.2Z" style="fill: rgb(38, 50, 56); transform-origin: 273.78px 201.34px;" id="el0p55pis7qba" class="animable"></path><path d="M299.48,192.68a11.39,11.39,0,0,1-1.26.76,31.87,31.87,0,0,0-3.32,2.2,30.65,30.65,0,0,0-8.4,10,31.55,31.55,0,0,0-3.39,12.58c-.13,1.68-.15,3.05-.16,4a8.17,8.17,0,0,1-.06,1.47,8.42,8.42,0,0,1-.15-1.47c-.05-.95-.08-2.32,0-4a30.13,30.13,0,0,1,3.3-12.81,29.3,29.3,0,0,1,8.64-10,25.64,25.64,0,0,1,3.44-2.09A6.94,6.94,0,0,1,299.48,192.68Z" style="fill: rgb(38, 50, 56); transform-origin: 291.085px 208.185px;" id="el0oz8koo9rgf" class="animable"></path><path d="M307.43,199.55c0,.1-1.82.51-4.65,1.57a14.78,14.78,0,0,0-4.51,2.67,16.77,16.77,0,0,0-3.88,5.09,29,29,0,0,0-2.76,11.38c-.1,1.44-.19,2.64-.26,3.59a7.28,7.28,0,0,1-.16,1.32,6.12,6.12,0,0,1,0-1.33c0-.85,0-2.08.1-3.6a38.25,38.25,0,0,1,.56-5.34,22.71,22.71,0,0,1,2.09-6.26,17,17,0,0,1,4-5.22,14.67,14.67,0,0,1,4.7-2.65,30.4,30.4,0,0,1,3.48-1A5.36,5.36,0,0,1,307.43,199.55Z" style="fill: rgb(38, 50, 56); transform-origin: 299.302px 212.36px;" id="eluekh4pyvnen" class="animable"></path><path d="M270.13,219.48a2.09,2.09,0,0,1-.51-.12c-.33-.11-.82-.24-1.43-.47a47.25,47.25,0,0,1-5.1-2.1,36.7,36.7,0,0,1-6.95-4.32,30.3,30.3,0,0,1-6.7-7.47c-1.89-3-3.53-6-5.81-8a13.09,13.09,0,0,0-7.28-3.05,13.47,13.47,0,0,0-5.4.24,8.06,8.06,0,0,0-1.81.83,2.72,2.72,0,0,1,.4-.35,5.91,5.91,0,0,1,1.35-.68,13.07,13.07,0,0,1,5.5-.41,16.87,16.87,0,0,1,3.75.83,11.08,11.08,0,0,1,3.81,2.24c2.38,2.07,4.05,5.11,5.93,8.08a30.68,30.68,0,0,0,6.56,7.37,38.62,38.62,0,0,0,6.82,4.37c2.06,1,3.8,1.77,5,2.24A16.6,16.6,0,0,1,270.13,219.48Z" style="fill: rgb(38, 50, 56); transform-origin: 249.635px 206.468px;" id="elvatkb3nu71r" class="animable"></path><path d="M221.57,189.68a23,23,0,0,0-4.53,2.64,26.88,26.88,0,0,0-3.48,3.93,9.29,9.29,0,0,1,3.15-4.33A8.89,8.89,0,0,1,221.57,189.68Z" style="fill: rgb(38, 50, 56); transform-origin: 217.565px 192.965px;" id="el1vqtu1apchq" class="animable"></path><path d="M222.83,212.77a3.4,3.4,0,0,1-.38-.92,23.09,23.09,0,0,1-.71-2.62,27.54,27.54,0,0,1-.39-8.93,17.77,17.77,0,0,1,1.24-4.8A13,13,0,0,1,224.7,192a10.26,10.26,0,0,1,2-1.83,2.86,2.86,0,0,1,.88-.47,18.48,18.48,0,0,0-2.62,2.54,16.06,16.06,0,0,0-3.12,8.08,30.9,30.9,0,0,0,.24,8.8C222.48,211.39,222.92,212.74,222.83,212.77Z" style="fill: rgb(38, 50, 56); transform-origin: 224.367px 201.235px;" id="elem89quawg1f" class="animable"></path><path d="M216.6,188.25c0,.09-1.28.31-3.23,1.1a19.11,19.11,0,0,0-11,11.48c-.7,2-.86,3.29-.95,3.28a2.88,2.88,0,0,1,0-.93,15.11,15.11,0,0,1,.55-2.47A18.1,18.1,0,0,1,213.24,189a15.83,15.83,0,0,1,2.44-.67A3,3,0,0,1,216.6,188.25Z" style="fill: rgb(38, 50, 56); transform-origin: 208.991px 196.177px;" id="elzbebco0hyu" class="animable"></path><path d="M249.69,205.77a12.7,12.7,0,0,1-8.67-2.7c.08-.14,1.84.92,4.24,1.66S249.7,205.61,249.69,205.77Z" style="fill: rgb(38, 50, 56); transform-origin: 245.355px 204.427px;" id="elfacknd271k" class="animable"></path><path d="M272.85,182.68c0,.09-1.74,1-4.23,3a32,32,0,0,0-7.86,9.54,38.91,38.91,0,0,0-4,11.75c-.28,1.57-.46,2.85-.56,3.74a8.23,8.23,0,0,1-.22,1.38,6.84,6.84,0,0,1,0-1.4c.05-.89.17-2.19.41-3.78A36.32,36.32,0,0,1,260.3,195a34,34,0,0,1,4-5.7,27.79,27.79,0,0,1,4.13-3.88,24.84,24.84,0,0,1,3.2-2.09A6.23,6.23,0,0,1,272.85,182.68Z" style="fill: rgb(38, 50, 56); transform-origin: 264.397px 197.385px;" id="el73fvwyc2onq" class="animable"></path><path d="M250.62,180.15a20.89,20.89,0,0,0-1.94,1.77,8.64,8.64,0,0,0-2.08,5.77,2.41,2.41,0,0,1-.74,1.83,16.54,16.54,0,0,1-1.46.94,9,9,0,0,0-2.07,1.91A24,24,0,0,0,241,194.6a1.65,1.65,0,0,1,.17-.7,7.3,7.3,0,0,1,.92-1.75,8.6,8.6,0,0,1,2.09-2.09c.45-.33,1-.57,1.39-.92a1.92,1.92,0,0,0,.55-1.48,8.59,8.59,0,0,1,.71-3.53,8.35,8.35,0,0,1,1.63-2.46,7,7,0,0,1,1.55-1.23C250.36,180.2,250.61,180.12,250.62,180.15Z" style="fill: rgb(38, 50, 56); transform-origin: 245.81px 187.372px;" id="elq5khhyk10ce" class="animable"></path><path d="M230.33,194.3a20,20,0,0,1-1.86-5.34,27.68,27.68,0,0,1-1-5.55,34.31,34.31,0,0,1,1.52,5.43C229.71,191.85,230.46,194.25,230.33,194.3Z" style="fill: rgb(38, 50, 56); transform-origin: 228.907px 188.855px;" id="elbxheyo7kqva" class="animable"></path><g id="elj6q44r8r8v"><g style="opacity: 0.3; transform-origin: 224.21px 200.916px;" class="animable"><path d="M227.23,190.15a29.81,29.81,0,0,0-2.81,8.45c-.5,4.09.71,8.27.06,12.34-.08.47-.24,1-.68,1.17a1,1,0,0,1-1-.37,2.63,2.63,0,0,1-.44-1.08,29.72,29.72,0,0,1-1-11.43c.58-3.81,2.54-7.55,5.85-9.53" id="el1hmir4dd1pn" class="animable" style="transform-origin: 224.21px 200.916px;"></path></g></g><g id="elifgx0ijqs5s"><g style="opacity: 0.3; transform-origin: 207.705px 196.365px;" class="animable"><path d="M201.55,203.49a36.87,36.87,0,0,1,12.31-14.25c-5.78,1.66-11.52,8.3-12.31,14.25" id="elijnjqjd22zn" class="animable" style="transform-origin: 207.705px 196.365px;"></path></g></g><path d="M288.08,304.86c3.85,4.91,7.73,9.87,12.58,13.79,1.58,1.28,3.52,2.5,5.5,2.06a7.07,7.07,0,0,0,3.61-2.69,14.75,14.75,0,0,0,3-4.69,5.78,5.78,0,0,0-.66-5.33,8,8,0,0,0-4-2.29,49.62,49.62,0,0,0-8.95-2,21.48,21.48,0,0,0-10.24.77" style="fill: rgb(55, 115, 208); transform-origin: 300.61px 312.108px;" id="eldt8534hrj99" class="animable"></path><path d="M283.86,306c9,2.45,32.11,2.13,44.66-.42a119.5,119.5,0,0,1,25.73-1.92s15.1,7.87,22.75,7.45,1.49-7.66,0-15.31,1.92-11.27-4.89-15.95-20.62,7.87-20.62,7.87l-9.36-1.07c-10.63-4.89-41.68-18.5-62.1-17.44S262,287.72,262,287.72,261.32,299.84,283.86,306Z" style="fill: rgb(55, 115, 208); transform-origin: 321.335px 290.139px;" id="elo7y0lvbzvko" class="animable"></path><path d="M276.94,281.18a3.13,3.13,0,1,1-3.12-3.13A3.12,3.12,0,0,1,276.94,281.18Z" style="fill: rgb(255, 255, 255); transform-origin: 273.81px 281.18px;" id="elpod39gks4jq" class="animable"></path><circle cx="273.82" cy="281.18" r="1.94" style="fill: rgb(38, 50, 56); transform-origin: 273.82px 281.18px;" id="eld5p7odahekd" class="animable"></circle><path d="M277.24,290a60.4,60.4,0,0,1-7.78-1.34,59.61,59.61,0,0,1-7.67-1.85,60.4,60.4,0,0,1,7.78,1.34A60.15,60.15,0,0,1,277.24,290Z" style="fill: rgb(38, 50, 56); transform-origin: 269.515px 288.405px;" id="els4v3yjt0wx" class="animable"></path><path d="M287.32,269.26c5.24-2.48,10.54-5,16.2-6.25,2.32-.53,5-.77,6.86.7s2.27,4.13,2.51,6.51c.16,1.51.25,3.21-.74,4.35l-12.68.78Z" style="fill: rgb(55, 115, 208); transform-origin: 300.155px 268.975px;" id="elhmf5j6qzhwr" class="animable"></path><path d="M315,275.88A68.11,68.11,0,0,1,336.16,273a6.1,6.1,0,0,1,3.72.94c1.83,1.47,1.45,4.44.15,6.39s-3.3,3.36-4.58,5.32l-14.71-4.42c-2.71-.81-5.8-2-6.64-4.68" style="fill: rgb(55, 115, 208); transform-origin: 327.615px 279.317px;" id="elbvgmyjmqp48" class="animable"></path><path d="M314.72,307.1c4.11,2.11,8.22,4.23,12.51,6a22,22,0,0,0,6.9,1.81,9.22,9.22,0,0,0,6.68-2.05,5.92,5.92,0,0,0,1.74-6.49,6.53,6.53,0,0,0-4.58-3.51,17,17,0,0,0-6,0,175.7,175.7,0,0,0-17.74,3.43" style="fill: rgb(55, 115, 208); transform-origin: 328.561px 308.771px;" id="eltt2dn0f6j3m" class="animable"></path><path d="M277.06,303.7s6.41-10,4.78-19.4-5.5-14.68-5.5-14.68a36.66,36.66,0,0,1,12.5-.22s2.93,5,1,17.41-6,19.19-6,19.19A23.47,23.47,0,0,1,277.06,303.7Z" style="fill: rgb(255, 255, 255); transform-origin: 283.419px 287.484px;" id="el7pd5rs233h" class="animable"></path><path d="M304.59,272.63c-.13,0,1.37,1.33-.75,5.7s-7.07,8-7,15.17,8.52,14.16,8.52,14.16l15.25-.89s2.12-8.06,2-13.76-2.2-16-2.2-16C320.41,276.53,306.12,272.41,304.59,272.63Z" style="fill: rgb(255, 255, 255); transform-origin: 309.727px 290.141px;" id="elae5w9e2jkh" class="animable"></path><path d="M342.13,286.65a5.19,5.19,0,0,1,0,4.92c-1.36,2.84-3.79,5.3-1.63,8.78l2.16,3.47,11.59-.16-2.76-15.94Z" style="fill: rgb(255, 255, 255); transform-origin: 346.945px 295.235px;" id="elykzcxmtl4tm" class="animable"></path><path d="M354.25,303.66a3,3,0,0,1-.71,0l-2,0c-1.76,0-4.31.05-7.46.2s-6.88.44-11,1-8.62,1.45-13.4,2.1c-2.39.33-4.75.51-7,.62s-4.46.2-6.55.24c-4.17.1-7.93,0-11.09-.16s-5.69-.49-7.43-.75c-.88-.12-1.55-.24-2-.33a2.65,2.65,0,0,1-.69-.16,6.3,6.3,0,0,1,.71.06l2,.23c1.75.2,4.29.44,7.43.58s6.9.18,11.06.05q3.12-.09,6.53-.27c2.26-.11,4.59-.3,7-.63,4.75-.64,9.26-1.55,13.4-2.06s7.9-.78,11.06-.89,5.71-.08,7.47,0l2,.07A6.51,6.51,0,0,1,354.25,303.66Z" style="fill: rgb(38, 50, 56); transform-origin: 319.585px 305.639px;" id="elci6s8crx49" class="animable"></path><path d="M342.13,286.65a2.67,2.67,0,0,1-.6-.19l-1.68-.65c-1.45-.57-3.54-1.44-6.09-2.56-5.13-2.19-12.07-5.61-20.16-8.2A117.2,117.2,0,0,0,302,272l-2.64-.56-2.49-.46c-1.61-.31-3.12-.56-4.5-.78-2.75-.46-5-.77-6.52-1l-1.78-.28a2.17,2.17,0,0,1-.61-.14,4.81,4.81,0,0,1,.62,0l1.79.19c1.55.17,3.8.42,6.56.84,1.38.19,2.89.43,4.51.72l2.51.43,2.65.54a109.83,109.83,0,0,1,11.63,3c8.15,2.6,15.07,6.08,20.16,8.36,2.53,1.15,4.59,2.08,6,2.7l1.64.74A4.22,4.22,0,0,1,342.13,286.65Z" style="fill: rgb(38, 50, 56); transform-origin: 312.795px 277.71px;" id="el13z35ymr43ue" class="animable"></path><path d="M372.2,286.83a21.4,21.4,0,0,1-2.61.48,32.54,32.54,0,0,0-6.08,1.78,31.89,31.89,0,0,0-5.59,3,24.34,24.34,0,0,1-2.2,1.48,9.46,9.46,0,0,1,2-1.78A25.36,25.36,0,0,1,369.54,287,9.52,9.52,0,0,1,372.2,286.83Z" style="fill: rgb(38, 50, 56); transform-origin: 363.96px 290.186px;" id="elav7xvet1tdj" class="animable"></path><path d="M373.73,302.53a12.25,12.25,0,0,1-2.77-.41,42.94,42.94,0,0,1-12.55-4.91,11.52,11.52,0,0,1-2.31-1.58,19.73,19.73,0,0,1,2.49,1.26,62.57,62.57,0,0,0,6.09,2.78,61.47,61.47,0,0,0,6.37,2.09A18.86,18.86,0,0,1,373.73,302.53Z" style="fill: rgb(38, 50, 56); transform-origin: 364.915px 299.08px;" id="elej73eooup4p" class="animable"></path><path d="M354.07,302.66a9.7,9.7,0,0,1-.48-2.2l-.89-5.35c-.33-2-.63-3.78-.9-5.35a10.21,10.21,0,0,1-.26-2.24,9.28,9.28,0,0,1,.63,2.17c.31,1.35.69,3.24,1,5.33s.6,4,.75,5.39A9.38,9.38,0,0,1,354.07,302.66Z" style="fill: rgb(38, 50, 56); transform-origin: 352.812px 295.09px;" id="elqer194oent" class="animable"></path><path d="M342.72,304s-.21-.17-.52-.54a18.84,18.84,0,0,1-1.22-1.64A10.06,10.06,0,0,1,339.7,299a5.9,5.9,0,0,1,.13-3.77,25.5,25.5,0,0,1,1.79-3.25,8.32,8.32,0,0,0,1-2.75,3.93,3.93,0,0,0-.13-1.93c-.16-.42-.36-.62-.32-.65s.26.13.51.57a3.69,3.69,0,0,1,.3,2,7.72,7.72,0,0,1-.9,2.93,34.63,34.63,0,0,0-1.73,3.21,5.75,5.75,0,0,0-.15,3.47,10.55,10.55,0,0,0,1.14,2.7A25.8,25.8,0,0,1,342.72,304Z" style="fill: rgb(38, 50, 56); transform-origin: 341.231px 295.323px;" id="elhawi1n7edyw" class="animable"></path><path d="M320.35,277a5.1,5.1,0,0,1,.38,1.1c.22.72.5,1.78.79,3.09a54.7,54.7,0,0,1,1.29,10.44,42.86,42.86,0,0,1-1,10.46,28.85,28.85,0,0,1-.86,3.08,4.55,4.55,0,0,1-.43,1.09c-.09,0,.42-1.62.93-4.24a49.87,49.87,0,0,0,.87-10.38,66,66,0,0,0-1.13-10.37c-.25-1.32-.47-2.38-.63-3.12A4.59,4.59,0,0,1,320.35,277Z" style="fill: rgb(38, 50, 56); transform-origin: 321.588px 291.63px;" id="elrn6ea6lcl4g" class="animable"></path><path d="M304.48,272.24a1.37,1.37,0,0,1,.16.38,6.56,6.56,0,0,1,.22,1.14,9.21,9.21,0,0,1-.74,4.19,28.45,28.45,0,0,1-3.25,5.39,24.11,24.11,0,0,0-1.9,3.13,13.63,13.63,0,0,0-1.17,3.71,17.62,17.62,0,0,0,.32,7.5,14.75,14.75,0,0,0,2.95,5.38c1.12,1.38,2.09,2.45,2.7,3.24a7,7,0,0,1,.9,1.27,10.59,10.59,0,0,1-1.05-1.14c-.66-.74-1.67-1.77-2.84-3.14a14.8,14.8,0,0,1-3.13-5.48,17.68,17.68,0,0,1-.36-7.72,13.58,13.58,0,0,1,1.22-3.84,24.49,24.49,0,0,1,2-3.18,29.89,29.89,0,0,0,3.31-5.26,9.63,9.63,0,0,0,.88-4C304.61,272.79,304.43,272.26,304.48,272.24Z" style="fill: rgb(38, 50, 56); transform-origin: 300.95px 289.905px;" id="el8715k7h2wgq" class="animable"></path><path d="M293.15,290.06l11.43-4.43a5.61,5.61,0,0,1,3.14-.56c2.13.47,2.92,3.15,2.67,5.32s-1.12,4.32-.68,6.46c.29,1.38,1.13,2.72.87,4.11a3.73,3.73,0,0,1-3.48,2.72,10.81,10.81,0,0,1-4.62-1L291,298.49" style="fill: rgb(55, 115, 208); transform-origin: 300.815px 294.358px;" id="elx7qz9x9cd8" class="animable"></path><path d="M291,298.49a2,2,0,0,1,.54.14l1.51.5,5.51,1.94,3.8,1.36a12.5,12.5,0,0,0,4.39,1,4.33,4.33,0,0,0,2.25-.66,2.94,2.94,0,0,0,1.36-1.9c.28-1.64-1.1-3.3-1-5.31s.68-3.73.83-5.45a5.08,5.08,0,0,0-1.54-4.41,2.78,2.78,0,0,0-2.09-.46,10.22,10.22,0,0,0-2.1.65l-3.77,1.42-5.48,2-1.5.53a2.36,2.36,0,0,1-.53.15,2,2,0,0,1,.49-.25l1.47-.62,5.41-2.19,3.75-1.49a10.8,10.8,0,0,1,2.19-.69,3.26,3.26,0,0,1,2.44.52,4.25,4.25,0,0,1,1.47,2.17,7,7,0,0,1,.3,2.67c-.16,1.82-.81,3.58-.82,5.41a7.33,7.33,0,0,0,.55,2.63,5.61,5.61,0,0,1,.44,2.77,3.38,3.38,0,0,1-1.6,2.22,4.63,4.63,0,0,1-2.5.73,12.89,12.89,0,0,1-4.55-1.1l-3.78-1.42-5.45-2.1-1.48-.59A3.1,3.1,0,0,1,291,298.49Z" style="fill: rgb(38, 50, 56); transform-origin: 300.948px 294.283px;" id="elevz2ec59voa" class="animable"></path><path d="M305.31,294.08a47.17,47.17,0,0,1-12.78.47,60.71,60.71,0,0,1,6.39-.32A60.3,60.3,0,0,1,305.31,294.08Z" style="fill: rgb(38, 50, 56); transform-origin: 298.92px 294.418px;" id="el925bw6vcpfb" class="animable"></path><path d="M288.84,269.4s.09.1.2.33a8.33,8.33,0,0,1,.46,1,18.25,18.25,0,0,1,1.08,4c.63,3.44.42,8.3-.51,13.5a64.33,64.33,0,0,1-3.89,12.94c-.65,1.6-1.21,2.89-1.6,3.77a8,8,0,0,1-.67,1.34,8.8,8.8,0,0,1,.48-1.42l1.44-3.82a73,73,0,0,0,3.73-12.9,43.87,43.87,0,0,0,.66-13.35A29.21,29.21,0,0,0,288.84,269.4Z" style="fill: rgb(38, 50, 56); transform-origin: 287.425px 287.84px;" id="elsavtpgv8aac" class="animable"></path><path d="M276.34,269.62a7.94,7.94,0,0,1,.69,1.23l1.79,3.41a31.62,31.62,0,0,1,2.2,5.28,32.24,32.24,0,0,1,1.32,6.9,20.24,20.24,0,0,1-.61,7,30,30,0,0,1-2.19,5.3c-.75,1.45-1.42,2.58-1.9,3.35a6.83,6.83,0,0,1-.81,1.16,7.92,7.92,0,0,1,.63-1.27c.43-.8,1.05-1.95,1.75-3.41a32.46,32.46,0,0,0,2.06-5.26,20.51,20.51,0,0,0,.55-6.84,33.54,33.54,0,0,0-1.26-6.8,34.77,34.77,0,0,0-2.07-5.26c-.7-1.46-1.28-2.64-1.64-3.48A6.63,6.63,0,0,1,276.34,269.62Z" style="fill: rgb(38, 50, 56); transform-origin: 279.379px 286.435px;" id="eltx7b92ag85b" class="animable"></path><path d="M277.85,287.47s.54.25,1.16,1a2.52,2.52,0,0,1,.6,1.63,2.31,2.31,0,0,1-1.16,1.81,3.24,3.24,0,0,1-2.09.35,5.34,5.34,0,0,1-1.6-.55c-.83-.46-1.27-.82-1.24-.88a5.8,5.8,0,0,1,1.4.54,5.44,5.44,0,0,0,1.5.41,2.88,2.88,0,0,0,1.76-.32,1.89,1.89,0,0,0,.95-1.39,2.27,2.27,0,0,0-.42-1.39C278.21,287.94,277.79,287.53,277.85,287.47Z" style="fill: rgb(38, 50, 56); transform-origin: 276.564px 289.888px;" id="elua8dkz1jd4" class="animable"></path><path d="M339.1,276.78c0,.16-3.43.13-7.62.63s-7.53,1.31-7.57,1.16a8.75,8.75,0,0,1,2.15-.7,41.4,41.4,0,0,1,5.36-1,44.14,44.14,0,0,1,5.43-.29A8.85,8.85,0,0,1,339.1,276.78Z" style="fill: rgb(38, 50, 56); transform-origin: 331.505px 277.581px;" id="elkp3xuzh0ocf" class="animable"></path></g><defs>     <filter id="active" height="200%">         <feMorphology in="SourceAlpha" result="DILATED" operator="dilate" radius="2"></feMorphology>                <feFlood flood-color="#32DFEC" flood-opacity="1" result="PINK"></feFlood>        <feComposite in="PINK" in2="DILATED" operator="in" result="OUTLINE"></feComposite>        <feMerge>            <feMergeNode in="OUTLINE"></feMergeNode>            <feMergeNode in="SourceGraphic"></feMergeNode>        </feMerge>    </filter>    <filter id="hover" height="200%">        <feMorphology in="SourceAlpha" result="DILATED" operator="dilate" radius="2"></feMorphology>                <feFlood flood-color="#ff0000" flood-opacity="0.5" result="PINK"></feFlood>        <feComposite in="PINK" in2="DILATED" operator="in" result="OUTLINE"></feComposite>        <feMerge>            <feMergeNode in="OUTLINE"></feMergeNode>            <feMergeNode in="SourceGraphic"></feMergeNode>        </feMerge>            <feColorMatrix type="matrix" values="0   0   0   0   0                0   1   0   0   0                0   0   0   0   0                0   0   0   1   0 "></feColorMatrix>    </filter></defs></svg>